<mxfile host="app.diagrams.net" agent="Mozilla/5.0 (Windows NT 10.0; Win64; x64) AppleWebKit/537.36 (KHTML, like Gecko) Chrome/137.0.0.0 Safari/537.36" version="27.1.5">
  <diagram name="PÃ¡gina-1" id="b0tBPLbpHxydpG2Q8U-w">
    <mxGraphModel dx="1406" dy="624" grid="0" gridSize="10" guides="1" tooltips="1" connect="1" arrows="1" fold="1" page="0" pageScale="1" pageWidth="827" pageHeight="1169" math="0" shadow="0">
      <root>
        <mxCell id="0" />
        <mxCell id="1" parent="0" />
        <mxCell id="Gaz2NAdLrD4V_zJWnl9g-2" value="Municipalidades" style="whiteSpace=wrap;html=1;aspect=fixed;" vertex="1" parent="1">
          <mxGeometry x="262" y="155" width="90" height="90" as="geometry" />
        </mxCell>
        <mxCell id="Gaz2NAdLrD4V_zJWnl9g-4" value="Viviendas" style="whiteSpace=wrap;html=1;aspect=fixed;" vertex="1" parent="1">
          <mxGeometry x="532" y="502" width="90" height="90" as="geometry" />
        </mxCell>
        <mxCell id="Gaz2NAdLrD4V_zJWnl9g-5" value="Personas" style="whiteSpace=wrap;html=1;aspect=fixed;" vertex="1" parent="1">
          <mxGeometry x="115" y="444" width="90" height="90" as="geometry" />
        </mxCell>
        <mxCell id="Gaz2NAdLrD4V_zJWnl9g-6" value="" style="edgeStyle=entityRelationEdgeStyle;fontSize=12;html=1;endArrow=ERoneToMany;startArrow=ERmandOne;rounded=0;startSize=8;endSize=8;curved=1;" edge="1" parent="1">
          <mxGeometry width="100" height="100" relative="1" as="geometry">
            <mxPoint x="60" y="280" as="sourcePoint" />
            <mxPoint x="141" y="280" as="targetPoint" />
            <Array as="points">
              <mxPoint x="172" y="330" />
              <mxPoint x="20" y="125" />
            </Array>
          </mxGeometry>
        </mxCell>
        <mxCell id="Gaz2NAdLrD4V_zJWnl9g-10" value="" style="edgeStyle=entityRelationEdgeStyle;fontSize=12;html=1;endArrow=ERmandOne;startArrow=ERmandOne;rounded=0;startSize=8;endSize=8;curved=1;" edge="1" parent="1">
          <mxGeometry width="100" height="100" relative="1" as="geometry">
            <mxPoint x="56" y="253" as="sourcePoint" />
            <mxPoint x="142" y="253" as="targetPoint" />
          </mxGeometry>
        </mxCell>
        <mxCell id="Gaz2NAdLrD4V_zJWnl9g-11" value="" style="whiteSpace=wrap;html=1;aspect=fixed;" vertex="1" parent="1">
          <mxGeometry x="314" y="623" width="90" height="90" as="geometry" />
        </mxCell>
        <mxCell id="Gaz2NAdLrD4V_zJWnl9g-12" value="" style="edgeStyle=entityRelationEdgeStyle;fontSize=12;html=1;endArrow=ERoneToMany;startArrow=ERmandOne;rounded=0;startSize=8;endSize=8;curved=1;exitX=0.996;exitY=0.622;exitDx=0;exitDy=0;exitPerimeter=0;entryX=0;entryY=0.5;entryDx=0;entryDy=0;" edge="1" parent="1" source="Gaz2NAdLrD4V_zJWnl9g-5" target="Gaz2NAdLrD4V_zJWnl9g-11">
          <mxGeometry width="100" height="100" relative="1" as="geometry">
            <mxPoint x="153" y="440" as="sourcePoint" />
            <mxPoint x="234" y="440" as="targetPoint" />
            <Array as="points">
              <mxPoint x="204" y="490" />
              <mxPoint x="265" y="490" />
              <mxPoint x="240" y="487" />
              <mxPoint x="113" y="285" />
            </Array>
          </mxGeometry>
        </mxCell>
        <mxCell id="Gaz2NAdLrD4V_zJWnl9g-18" value="" style="edgeStyle=entityRelationEdgeStyle;fontSize=12;html=1;endArrow=ERoneToMany;startArrow=ERmandOne;rounded=0;startSize=8;endSize=8;curved=1;exitX=0;exitY=0.5;exitDx=0;exitDy=0;entryX=0.5;entryY=0;entryDx=0;entryDy=0;" edge="1" parent="1" source="Gaz2NAdLrD4V_zJWnl9g-2" target="Gaz2NAdLrD4V_zJWnl9g-5">
          <mxGeometry width="100" height="100" relative="1" as="geometry">
            <mxPoint x="158" y="497" as="sourcePoint" />
            <mxPoint x="239" y="497" as="targetPoint" />
            <Array as="points">
              <mxPoint x="270" y="547" />
              <mxPoint x="118" y="342" />
            </Array>
          </mxGeometry>
        </mxCell>
        <mxCell id="Gaz2NAdLrD4V_zJWnl9g-19" value="Empadronado" style="text;html=1;align=center;verticalAlign=middle;resizable=0;points=[];autosize=1;strokeColor=none;fillColor=none;fontSize=16;" vertex="1" parent="1">
          <mxGeometry x="209" y="291" width="119" height="31" as="geometry" />
        </mxCell>
        <mxCell id="Gaz2NAdLrD4V_zJWnl9g-21" value="Propietario" style="text;html=1;align=center;verticalAlign=middle;resizable=0;points=[];autosize=1;strokeColor=none;fillColor=none;fontSize=16;" vertex="1" parent="1">
          <mxGeometry x="161" y="561" width="95" height="31" as="geometry" />
        </mxCell>
        <mxCell id="Gaz2NAdLrD4V_zJWnl9g-22" value="Prop-viviendas" style="text;html=1;align=center;verticalAlign=middle;resizable=0;points=[];autosize=1;strokeColor=none;fillColor=none;fontSize=16;" vertex="1" parent="1">
          <mxGeometry x="457" y="623" width="124" height="31" as="geometry" />
        </mxCell>
        <mxCell id="Gaz2NAdLrD4V_zJWnl9g-23" value="" style="edgeStyle=entityRelationEdgeStyle;fontSize=12;html=1;endArrow=ERoneToMany;startArrow=ERmandOne;rounded=0;startSize=8;endSize=8;curved=1;exitX=0;exitY=0.5;exitDx=0;exitDy=0;entryX=1;entryY=0.5;entryDx=0;entryDy=0;" edge="1" parent="1" source="Gaz2NAdLrD4V_zJWnl9g-4" target="Gaz2NAdLrD4V_zJWnl9g-11">
          <mxGeometry width="100" height="100" relative="1" as="geometry">
            <mxPoint x="136" y="435" as="sourcePoint" />
            <mxPoint x="217" y="435" as="targetPoint" />
            <Array as="points">
              <mxPoint x="248" y="485" />
              <mxPoint x="96" y="280" />
            </Array>
          </mxGeometry>
        </mxCell>
        <mxCell id="Gaz2NAdLrD4V_zJWnl9g-25" value="Habita" style="text;html=1;align=center;verticalAlign=middle;resizable=0;points=[];autosize=1;strokeColor=none;fillColor=none;fontSize=16;" vertex="1" parent="1">
          <mxGeometry x="328" y="458" width="64" height="31" as="geometry" />
        </mxCell>
        <mxCell id="Gaz2NAdLrD4V_zJWnl9g-27" value="" style="edgeStyle=entityRelationEdgeStyle;fontSize=12;html=1;endArrow=ERoneToMany;startArrow=ERmandOne;rounded=0;startSize=8;endSize=8;curved=1;entryX=1;entryY=0.25;entryDx=0;entryDy=0;exitX=0;exitY=0.25;exitDx=0;exitDy=0;" edge="1" parent="1" source="Gaz2NAdLrD4V_zJWnl9g-4" target="Gaz2NAdLrD4V_zJWnl9g-5">
          <mxGeometry width="100" height="100" relative="1" as="geometry">
            <mxPoint x="131" y="433" as="sourcePoint" />
            <mxPoint x="212" y="433" as="targetPoint" />
            <Array as="points">
              <mxPoint x="243" y="483" />
              <mxPoint x="91" y="278" />
            </Array>
          </mxGeometry>
        </mxCell>
        <mxCell id="Gaz2NAdLrD4V_zJWnl9g-29" value="Pertenece" style="text;html=1;align=center;verticalAlign=middle;resizable=0;points=[];autosize=1;strokeColor=none;fillColor=none;fontSize=16;" vertex="1" parent="1">
          <mxGeometry x="445" y="310" width="91" height="31" as="geometry" />
        </mxCell>
        <mxCell id="Gaz2NAdLrD4V_zJWnl9g-30" value="" style="edgeStyle=entityRelationEdgeStyle;fontSize=12;html=1;endArrow=ERoneToMany;startArrow=ERmandOne;rounded=0;startSize=8;endSize=8;curved=1;entryX=0.5;entryY=0;entryDx=0;entryDy=0;exitX=1;exitY=0.5;exitDx=0;exitDy=0;" edge="1" parent="1" source="Gaz2NAdLrD4V_zJWnl9g-2" target="Gaz2NAdLrD4V_zJWnl9g-4">
          <mxGeometry width="100" height="100" relative="1" as="geometry">
            <mxPoint x="190" y="452" as="sourcePoint" />
            <mxPoint x="271" y="452" as="targetPoint" />
            <Array as="points">
              <mxPoint x="302" y="502" />
              <mxPoint x="150" y="297" />
            </Array>
          </mxGeometry>
        </mxCell>
        <mxCell id="Gaz2NAdLrD4V_zJWnl9g-32" value="Propiedades" style="rhombus;whiteSpace=wrap;html=1;" vertex="1" parent="1">
          <mxGeometry x="320" y="628" width="80" height="80" as="geometry" />
        </mxCell>
      </root>
    </mxGraphModel>
  </diagram>
</mxfile>
